<svg width="6445" height="3501" viewBox="0 0 6445 3501" fill="none" xmlns="http://www.w3.org/2000/svg">
<g filter="url(#filter0_d_676_12)">
<path d="M3058.45 355.769H2729.92C2654.42 355.769 2579.66 371.873 2509.91 403.162C2440.16 434.45 2376.78 480.31 2323.39 538.123C2270 595.937 2227.66 664.571 2198.76 740.108C2169.87 815.645 2155 896.605 2155 978.365C2155 1060.13 2169.87 1141.09 2198.76 1216.62C2227.66 1292.16 2270 1360.79 2323.39 1418.61C2376.78 1476.42 2440.16 1522.28 2509.91 1553.57C2579.66 1584.86 2654.42 1600.96 2729.92 1600.96H3058.45V2134.62H2319.26V2490.38H3058.45V2846.15H3386.97V2490.38H3715.5C3867.97 2490.38 4014.21 2424.79 4122.03 2308.03C4229.84 2191.27 4290.42 2032.91 4290.42 1867.79C4290.42 1702.67 4229.84 1544.31 4122.03 1427.55C4014.21 1310.79 3867.97 1245.19 3715.5 1245.19H3386.97V711.539H4126.15V355.769H3386.97V0H3058.45V355.769ZM3386.97 1600.96H3715.5C3780.84 1600.96 3843.52 1629.07 3889.72 1679.11C3935.93 1729.15 3961.89 1797.02 3961.89 1867.79C3961.89 1938.56 3935.93 2006.42 3889.72 2056.46C3843.52 2106.5 3780.84 2134.62 3715.5 2134.62H3386.97V1600.96ZM3058.45 1245.19H2729.92C2697.56 1245.19 2665.52 1238.29 2635.63 1224.88C2605.73 1211.47 2578.57 1191.82 2555.69 1167.04C2532.81 1142.26 2514.66 1112.85 2502.28 1080.48C2489.9 1048.1 2483.53 1013.41 2483.53 978.365C2483.53 943.325 2489.9 908.628 2502.28 876.255C2514.66 843.882 2532.81 814.467 2555.69 789.69C2578.57 764.913 2605.73 745.259 2635.63 731.849C2665.52 718.44 2697.56 711.539 2729.92 711.539H3058.45V1245.19Z" fill="#7BFFE0"/>
</g>
<g filter="url(#filter1_df_676_12)">
<path d="M647.465 3083.27H527.294C526.442 3073.33 524.169 3064.31 520.476 3056.21C516.925 3048.12 511.953 3041.16 505.561 3035.33C499.311 3029.37 491.712 3024.82 482.763 3021.7C473.814 3018.43 463.658 3016.8 452.294 3016.8C432.408 3016.8 415.575 3021.62 401.797 3031.28C388.161 3040.94 377.791 3054.79 370.689 3072.83C363.729 3090.87 360.249 3112.53 360.249 3137.82C360.249 3164.52 363.8 3186.89 370.902 3204.93C378.146 3222.83 388.587 3236.33 402.223 3245.42C415.859 3254.37 432.266 3258.84 451.442 3258.84C462.379 3258.84 472.18 3257.49 480.845 3254.79C489.51 3251.95 497.038 3247.9 503.43 3242.65C509.822 3237.39 515.007 3231.07 518.984 3223.68C523.104 3216.16 525.874 3207.7 527.294 3198.33L647.465 3199.18C646.044 3217.65 640.859 3236.47 631.911 3255.64C622.962 3274.68 610.249 3292.29 593.771 3308.49C577.436 3324.54 557.195 3337.46 533.047 3347.26C508.899 3357.07 480.845 3361.97 448.885 3361.97C408.828 3361.97 372.891 3353.37 341.072 3336.18C309.396 3319 284.325 3293.71 265.859 3260.33C247.536 3226.95 238.374 3186.11 238.374 3137.82C238.374 3089.24 247.749 3048.33 266.499 3015.09C285.249 2981.71 310.533 2956.5 342.351 2939.45C374.169 2922.26 409.68 2913.67 448.885 2913.67C476.442 2913.67 501.797 2917.43 524.95 2924.96C548.104 2932.49 568.416 2943.5 585.888 2957.99C603.359 2972.34 617.422 2990.02 628.075 3011.04C638.729 3032.07 645.192 3056.14 647.465 3083.27ZM915.131 3212.82V3028.73H1032.75V3356H921.097V3293.78H917.688C910.586 3314.66 898.157 3331 880.401 3342.79C862.646 3354.44 841.552 3360.26 817.12 3360.26C794.251 3360.26 774.222 3355.01 757.035 3344.49C739.989 3333.98 726.708 3319.49 717.191 3301.03C707.816 3282.56 703.058 3261.4 702.915 3237.53V3028.73H820.529V3212.82C820.671 3229.01 824.79 3241.72 832.887 3250.96C841.126 3260.19 852.631 3264.81 867.404 3264.81C877.205 3264.81 885.657 3262.75 892.759 3258.63C900.004 3254.37 905.543 3248.4 909.379 3240.73C913.356 3232.92 915.273 3223.61 915.131 3212.82ZM1092.56 3356V3028.73H1206.77V3090.94H1210.18C1216.14 3067.93 1225.59 3051.1 1238.52 3040.45C1251.58 3029.79 1266.85 3024.47 1284.33 3024.47C1289.44 3024.47 1294.48 3024.89 1299.45 3025.74C1304.57 3026.45 1309.47 3027.52 1314.15 3028.94V3129.3C1308.33 3127.31 1301.16 3125.82 1292.63 3124.82C1284.11 3123.83 1276.8 3123.33 1270.69 3123.33C1259.18 3123.33 1248.81 3125.96 1239.58 3131.21C1230.49 3136.33 1223.32 3143.57 1218.06 3152.95C1212.81 3162.18 1210.18 3173.05 1210.18 3185.55V3356H1092.56ZM1352.72 3356V3028.73H1466.92V3090.94H1470.33C1476.3 3067.93 1485.75 3051.1 1498.67 3040.45C1511.74 3029.79 1527.01 3024.47 1544.48 3024.47C1549.6 3024.47 1554.64 3024.89 1559.61 3025.74C1564.72 3026.45 1569.62 3027.52 1574.31 3028.94V3129.3C1568.49 3127.31 1561.31 3125.82 1552.79 3124.82C1544.27 3123.83 1536.95 3123.33 1530.85 3123.33C1519.34 3123.33 1508.97 3125.96 1499.74 3131.21C1490.65 3136.33 1483.47 3143.57 1478.22 3152.95C1472.96 3162.18 1470.33 3173.05 1470.33 3185.55V3356H1352.72ZM1750.94 3361.97C1716 3361.97 1685.89 3355.29 1660.6 3341.94C1635.46 3328.44 1616.07 3309.12 1602.44 3283.98C1588.94 3258.7 1582.19 3228.44 1582.19 3193.22C1582.19 3159.41 1589.01 3129.86 1602.65 3104.58C1616.29 3079.3 1635.53 3059.62 1660.39 3045.56C1685.25 3031.5 1714.58 3024.47 1748.39 3024.47C1773.1 3024.47 1795.48 3028.3 1815.5 3035.97C1835.53 3043.64 1852.65 3054.79 1866.85 3069.42C1881.06 3083.91 1892 3101.53 1899.67 3122.26C1907.34 3143 1911.17 3166.37 1911.17 3192.36V3219.64H1618.84V3154.86H1802.93C1802.79 3145.49 1800.38 3137.25 1795.69 3130.15C1791.14 3122.9 1784.96 3117.29 1777.15 3113.32C1769.48 3109.2 1760.75 3107.14 1750.94 3107.14C1741.43 3107.14 1732.69 3109.2 1724.74 3113.32C1716.78 3117.29 1710.39 3122.83 1705.56 3129.93C1700.87 3137.04 1698.39 3145.35 1698.1 3154.86V3224.75C1698.1 3235.26 1700.31 3244.64 1704.71 3252.88C1709.11 3261.11 1715.43 3267.58 1723.67 3272.26C1731.91 3276.95 1741.85 3279.3 1753.5 3279.3C1761.6 3279.3 1768.98 3278.16 1775.66 3275.89C1782.48 3273.61 1788.3 3270.35 1793.13 3266.09C1797.96 3261.68 1801.51 3256.43 1803.79 3250.32H1911.17C1907.48 3273.05 1898.74 3292.79 1884.96 3309.55C1871.19 3326.17 1852.93 3339.1 1830.21 3348.33C1807.62 3357.42 1781.2 3361.97 1750.94 3361.97ZM2076.78 3171.91V3356H1959.17V3028.73H2070.81V3090.94H2074.22C2081.32 3070.2 2093.82 3053.94 2111.72 3042.15C2129.76 3030.36 2150.78 3024.47 2174.79 3024.47C2197.94 3024.47 2218.04 3029.79 2235.09 3040.45C2252.28 3050.96 2265.56 3065.45 2274.93 3083.91C2284.45 3102.38 2289.14 3123.47 2289 3147.19V3356H2171.38V3171.91C2171.52 3155.72 2167.4 3143 2159.02 3133.77C2150.78 3124.54 2139.28 3119.92 2124.51 3119.92C2114.85 3119.92 2106.4 3122.05 2099.15 3126.31C2092.05 3130.43 2086.58 3136.4 2082.75 3144.21C2078.91 3151.88 2076.92 3161.11 2076.78 3171.91ZM2504.73 3361.97C2469.22 3361.97 2438.82 3354.93 2413.53 3340.87C2388.25 3326.67 2368.86 3306.92 2355.37 3281.64C2341.87 3256.21 2335.12 3226.74 2335.12 3193.22C2335.12 3159.69 2341.87 3130.29 2355.37 3105.01C2368.86 3079.58 2388.25 3059.84 2413.53 3045.77C2438.82 3031.57 2469.22 3024.47 2504.73 3024.47C2536.83 3024.47 2564.6 3030.29 2588.04 3041.94C2611.62 3053.44 2629.87 3069.78 2642.79 3090.94C2655.72 3111.97 2662.25 3136.68 2662.4 3165.09H2553.31C2551.74 3147.9 2546.77 3134.84 2538.39 3125.89C2530.15 3116.8 2519.5 3112.25 2506.43 3112.25C2496.2 3112.25 2487.25 3115.23 2479.58 3121.2C2471.91 3127.02 2465.95 3135.9 2461.69 3147.83C2457.43 3159.62 2455.29 3174.47 2455.29 3192.36C2455.29 3210.26 2457.43 3225.18 2461.69 3237.11C2465.95 3248.9 2471.91 3257.78 2479.58 3263.74C2487.25 3269.57 2496.2 3272.48 2506.43 3272.48C2515.1 3272.48 2522.77 3270.49 2529.44 3266.51C2536.12 3262.39 2541.52 3256.43 2545.64 3248.61C2549.9 3240.66 2552.45 3231 2553.31 3219.64H2662.4C2661.97 3248.47 2655.37 3273.61 2642.58 3295.06C2629.8 3316.37 2611.69 3332.85 2588.25 3344.49C2564.95 3356.14 2537.11 3361.97 2504.73 3361.97ZM2782.51 3478.73C2769.02 3478.73 2756.16 3477.66 2743.95 3475.53C2731.73 3473.54 2721.01 3470.77 2711.78 3467.22L2737.34 3383.7C2747 3387.11 2755.81 3389.31 2763.76 3390.3C2771.86 3391.3 2778.75 3390.73 2784.43 3388.6C2790.26 3386.47 2794.45 3382.42 2797 3376.45L2799.56 3370.49L2684.5 3028.73H2807.23L2860.07 3255.43H2863.48L2917.17 3028.73H3040.75L2921.43 3383.27C2915.47 3401.31 2906.8 3417.51 2895.44 3431.85C2884.22 3446.34 2869.45 3457.78 2851.12 3466.16C2832.8 3474.54 2809.93 3478.73 2782.51 3478.73ZM3599.42 3083.27H3479.25C3478.39 3073.33 3476.12 3064.31 3472.43 3056.21C3468.88 3048.12 3463.91 3041.16 3457.51 3035.33C3451.26 3029.37 3443.66 3024.82 3434.72 3021.7C3425.77 3018.43 3415.61 3016.8 3404.25 3016.8C3384.36 3016.8 3367.53 3021.62 3353.75 3031.28C3340.11 3040.94 3329.74 3054.79 3322.64 3072.83C3315.68 3090.87 3312.2 3112.53 3312.2 3137.82C3312.2 3164.52 3315.75 3186.89 3322.86 3204.93C3330.1 3222.83 3340.54 3236.33 3354.18 3245.42C3367.81 3254.37 3384.22 3258.84 3403.39 3258.84C3414.33 3258.84 3424.13 3257.49 3432.8 3254.79C3441.46 3251.95 3448.99 3247.9 3455.38 3242.65C3461.78 3237.39 3466.96 3231.07 3470.94 3223.68C3475.06 3216.16 3477.83 3207.7 3479.25 3198.33L3599.42 3199.18C3598 3217.65 3592.81 3236.47 3583.86 3255.64C3574.91 3274.68 3562.2 3292.29 3545.72 3308.49C3529.39 3324.54 3509.15 3337.46 3485 3347.26C3460.85 3357.07 3432.8 3361.97 3400.84 3361.97C3360.78 3361.97 3324.84 3353.37 3293.03 3336.18C3261.35 3319 3236.28 3293.71 3217.81 3260.33C3199.49 3226.95 3190.33 3186.11 3190.33 3137.82C3190.33 3089.24 3199.7 3048.33 3218.45 3015.09C3237.2 2981.71 3262.49 2956.5 3294.3 2939.45C3326.12 2922.26 3361.63 2913.67 3400.84 2913.67C3428.39 2913.67 3453.75 2917.43 3476.9 2924.96C3500.06 2932.49 3520.37 2943.5 3537.84 2957.99C3555.31 2972.34 3569.38 2990.02 3580.03 3011.04C3590.68 3032.07 3597.14 3056.14 3599.42 3083.27ZM3812.54 3361.97C3777.03 3361.97 3746.63 3354.93 3721.35 3340.87C3696.06 3326.67 3676.67 3306.92 3663.18 3281.64C3649.68 3256.21 3642.94 3226.74 3642.94 3193.22C3642.94 3159.69 3649.68 3130.29 3663.18 3105.01C3676.67 3079.58 3696.06 3059.84 3721.35 3045.77C3746.63 3031.57 3777.03 3024.47 3812.54 3024.47C3848.05 3024.47 3878.45 3031.57 3903.73 3045.77C3929.02 3059.84 3948.41 3079.58 3961.9 3105.01C3975.39 3130.29 3982.14 3159.69 3982.14 3193.22C3982.14 3226.74 3975.39 3256.21 3961.9 3281.64C3948.41 3306.92 3929.02 3326.67 3903.73 3340.87C3878.45 3354.93 3848.05 3361.97 3812.54 3361.97ZM3813.39 3275.03C3823.33 3275.03 3831.93 3271.7 3839.17 3265.02C3846.42 3258.34 3852.03 3248.83 3856 3236.47C3859.98 3224.11 3861.97 3209.41 3861.97 3192.36C3861.97 3175.18 3859.98 3160.47 3856 3148.26C3852.03 3135.9 3846.42 3126.38 3839.17 3119.71C3831.93 3113.03 3823.33 3109.69 3813.39 3109.69C3802.88 3109.69 3793.86 3113.03 3786.33 3119.71C3778.8 3126.38 3773.05 3135.9 3769.07 3148.26C3765.1 3160.47 3763.11 3175.18 3763.11 3192.36C3763.11 3209.41 3765.1 3224.11 3769.07 3236.47C3773.05 3248.83 3778.8 3258.34 3786.33 3265.02C3793.86 3271.7 3802.88 3275.03 3813.39 3275.03ZM4147.48 3171.91V3356H4029.87V3028.73H4141.52V3090.94H4144.93C4152.03 3070.2 4164.53 3053.94 4182.43 3042.15C4200.47 3030.36 4221.49 3024.47 4245.49 3024.47C4268.65 3024.47 4288.75 3029.79 4305.79 3040.45C4322.98 3050.96 4336.26 3065.45 4345.64 3083.91C4355.15 3102.38 4359.84 3123.47 4359.7 3147.19V3356H4242.08V3171.91C4242.23 3155.72 4238.11 3143 4229.73 3133.77C4221.49 3124.54 4209.98 3119.92 4195.21 3119.92C4185.55 3119.92 4177.1 3122.05 4169.85 3126.31C4162.75 3130.43 4157.28 3136.4 4153.45 3144.21C4149.61 3151.88 4147.62 3161.11 4147.48 3171.91ZM4735.87 3028.73L4625.93 3356H4489.56L4379.62 3028.73H4503.2L4556.04 3245.2H4559.45L4612.29 3028.73H4735.87ZM4916.18 3361.97C4881.24 3361.97 4851.12 3355.29 4825.84 3341.94C4800.7 3328.44 4781.31 3309.12 4767.67 3283.98C4754.18 3258.7 4747.43 3228.44 4747.43 3193.22C4747.43 3159.41 4754.25 3129.86 4767.88 3104.58C4781.52 3079.3 4800.77 3059.62 4825.62 3045.56C4850.48 3031.5 4879.82 3024.47 4913.62 3024.47C4938.34 3024.47 4960.71 3028.3 4980.74 3035.97C5000.77 3043.64 5017.88 3054.79 5032.09 3069.42C5046.29 3083.91 5057.23 3101.53 5064.9 3122.26C5072.57 3143 5076.41 3166.37 5076.41 3192.36V3219.64H4784.08V3154.86H4968.17C4968.03 3145.49 4965.61 3137.25 4960.92 3130.15C4956.38 3122.9 4950.2 3117.29 4942.39 3113.32C4934.72 3109.2 4925.98 3107.14 4916.18 3107.14C4906.66 3107.14 4897.93 3109.2 4889.97 3113.32C4882.02 3117.29 4875.63 3122.83 4870.8 3129.93C4866.11 3137.04 4863.62 3145.35 4863.34 3154.86V3224.75C4863.34 3235.26 4865.54 3244.64 4869.94 3252.88C4874.35 3261.11 4880.67 3267.58 4888.91 3272.26C4897.14 3276.95 4907.09 3279.3 4918.74 3279.3C4926.83 3279.3 4934.22 3278.16 4940.89 3275.89C4947.71 3273.61 4953.54 3270.35 4958.37 3266.09C4963.2 3261.68 4966.75 3256.43 4969.02 3250.32H5076.41C5072.71 3273.05 5063.98 3292.79 5050.2 3309.55C5036.42 3326.17 5018.17 3339.1 4995.44 3348.33C4972.86 3357.42 4946.43 3361.97 4916.18 3361.97ZM5124.4 3356V3028.73H5238.6V3090.94H5242.01C5247.98 3067.93 5257.43 3051.1 5270.35 3040.45C5283.42 3029.79 5298.69 3024.47 5316.16 3024.47C5321.27 3024.47 5326.32 3024.89 5331.29 3025.74C5336.4 3026.45 5341.3 3027.52 5345.99 3028.94V3129.3C5340.17 3127.31 5332.99 3125.82 5324.47 3124.82C5315.95 3123.83 5308.63 3123.33 5302.52 3123.33C5291.02 3123.33 5280.65 3125.96 5271.42 3131.21C5262.33 3136.33 5255.15 3143.57 5249.9 3152.95C5244.64 3162.18 5242.01 3173.05 5242.01 3185.55V3356H5124.4ZM5593.2 3028.73V3113.95H5377.58V3028.73H5593.2ZM5419.34 2950.32H5536.95V3250.74C5536.95 3255.29 5537.73 3259.12 5539.3 3262.25C5540.86 3265.23 5543.27 3267.51 5546.54 3269.07C5549.81 3270.49 5554 3271.2 5559.11 3271.2C5562.66 3271.2 5566.78 3270.77 5571.47 3269.92C5576.3 3269.07 5579.85 3268.36 5582.12 3267.79L5599.17 3350.46C5593.91 3352.02 5586.38 3353.94 5576.58 3356.21C5566.92 3358.49 5555.42 3359.98 5542.07 3360.69C5515.08 3362.11 5492.42 3359.34 5474.1 3352.38C5455.77 3345.28 5442 3334.12 5432.76 3318.93C5423.53 3303.73 5419.06 3284.69 5419.34 3261.82V2950.32ZM5794.5 3361.97C5759.56 3361.97 5729.44 3355.29 5704.16 3341.94C5679.02 3328.44 5659.63 3309.12 5645.99 3283.98C5632.5 3258.7 5625.75 3228.44 5625.75 3193.22C5625.75 3159.41 5632.57 3129.86 5646.2 3104.58C5659.84 3079.3 5679.09 3059.62 5703.95 3045.56C5728.8 3031.5 5758.14 3024.47 5791.94 3024.47C5816.66 3024.47 5839.03 3028.3 5859.06 3035.97C5879.09 3043.64 5896.2 3054.79 5910.41 3069.42C5924.61 3083.91 5935.55 3101.53 5943.22 3122.26C5950.89 3143 5954.73 3166.37 5954.73 3192.36V3219.64H5662.4V3154.86H5846.49C5846.35 3145.49 5843.93 3137.25 5839.24 3130.15C5834.7 3122.9 5828.52 3117.29 5820.71 3113.32C5813.04 3109.2 5804.3 3107.14 5794.5 3107.14C5784.98 3107.14 5776.25 3109.2 5768.29 3113.32C5760.34 3117.29 5753.95 3122.83 5749.12 3129.93C5744.43 3137.04 5741.94 3145.35 5741.66 3154.86V3224.75C5741.66 3235.26 5743.86 3244.64 5748.26 3252.88C5752.67 3261.11 5758.99 3267.58 5767.23 3272.26C5775.47 3276.95 5785.41 3279.3 5797.06 3279.3C5805.15 3279.3 5812.54 3278.16 5819.22 3275.89C5826.03 3273.61 5831.86 3270.35 5836.69 3266.09C5841.52 3261.68 5845.07 3256.43 5847.34 3250.32H5954.73C5951.03 3273.05 5942.3 3292.79 5928.52 3309.55C5914.74 3326.17 5896.49 3339.1 5873.76 3348.33C5851.18 3357.42 5824.75 3361.97 5794.5 3361.97ZM6002.72 3356V3028.73H6116.92V3090.94H6120.33C6126.3 3067.93 6135.75 3051.1 6148.67 3040.45C6161.74 3029.79 6177.01 3024.47 6194.48 3024.47C6199.6 3024.47 6204.64 3024.89 6209.61 3025.74C6214.72 3026.45 6219.62 3027.52 6224.31 3028.94V3129.3C6218.49 3127.31 6211.31 3125.82 6202.79 3124.82C6194.27 3123.83 6186.95 3123.33 6180.85 3123.33C6169.34 3123.33 6158.97 3125.96 6149.74 3131.21C6140.65 3136.33 6133.47 3143.57 6128.22 3152.95C6122.96 3162.18 6120.33 3173.05 6120.33 3185.55V3356H6002.72Z" fill="#7BFFE0"/>
</g>
<defs>
<filter id="filter0_d_676_12" x="2155" y="0" width="2274.42" height="2993.15" filterUnits="userSpaceOnUse" color-interpolation-filters="sRGB">
<feFlood flood-opacity="0" result="BackgroundImageFix"/>
<feColorMatrix in="SourceAlpha" type="matrix" values="0 0 0 0 0 0 0 0 0 0 0 0 0 0 0 0 0 0 127 0" result="hardAlpha"/>
<feOffset dx="135" dy="143"/>
<feGaussianBlur stdDeviation="2"/>
<feComposite in2="hardAlpha" operator="out"/>
<feColorMatrix type="matrix" values="0 0 0 0 0 0 0 0 0 0 0 0 0 0 0 0 0 0 0.25 0"/>
<feBlend mode="normal" in2="BackgroundImageFix" result="effect1_dropShadow_676_12"/>
<feBlend mode="normal" in="SourceGraphic" in2="effect1_dropShadow_676_12" result="shape"/>
</filter>
<filter id="filter1_df_676_12" x="234.374" y="2909.67" width="5993.94" height="577.057" filterUnits="userSpaceOnUse" color-interpolation-filters="sRGB">
<feFlood flood-opacity="0" result="BackgroundImageFix"/>
<feColorMatrix in="SourceAlpha" type="matrix" values="0 0 0 0 0 0 0 0 0 0 0 0 0 0 0 0 0 0 127 0" result="hardAlpha"/>
<feOffset dy="4"/>
<feGaussianBlur stdDeviation="2"/>
<feComposite in2="hardAlpha" operator="out"/>
<feColorMatrix type="matrix" values="0 0 0 0 0 0 0 0 0 0 0 0 0 0 0 0 0 0 0.25 0"/>
<feBlend mode="normal" in2="BackgroundImageFix" result="effect1_dropShadow_676_12"/>
<feBlend mode="normal" in="SourceGraphic" in2="effect1_dropShadow_676_12" result="shape"/>
<feGaussianBlur stdDeviation="2" result="effect2_foregroundBlur_676_12"/>
</filter>
</defs>
</svg>
